<svg width="190" height="38" fill="none" xmlns="http://www.w3.org/2000/svg"><g clip-path="url(#a)"><path d="M6.012 20.935V18.65a139.122 139.122 0 0 1 19.976-1.343c0 .606 0 1.222-.06 1.839 1.9-.86 3.896-1.478 5.943-1.84a16.767 16.767 0 0 0-6.767-8.283 16.248 16.248 0 0 0-10.306-2.4c-3.6.375-6.98 1.946-9.62 4.471a16.948 16.948 0 0 0-4.99 9.507l5.824.333ZM26.978 24.481c-1.149 1.294-1.376 1.213-1.376 3.486v9.275a16.694 16.694 0 0 0 5.425-6.052A17.082 17.082 0 0 0 33 23.239c-.013-1.052-.12-2.1-.317-3.133a32.866 32.866 0 0 0-5.705 4.375ZM6.299 25.987s-3.754-1.455-5.14-1.85A8.33 8.33 0 0 0 0 23.856a17.067 17.067 0 0 0 2.463 8.233A16.633 16.633 0 0 0 8.598 38L6.299 25.987Z" fill="#FDC305"/><path d="M26.038 17.297A92.52 92.52 0 0 0 24.65.657s-.139-1.304-.881-.243a14.583 14.583 0 0 0-1.189 3.981 68.296 68.296 0 0 0-12.647.344C9.15 2.02 7.774.758 7.11 1.01c-.663.253-.713 3.345-.713 3.345L6.071 18.6a139.08 139.08 0 0 1 19.967-1.303Z" fill="#F06351"/><path d="M12.29 14.145c0-.09.991.687 1.397.93.406.242.604.424.604.596s-.267.344-.624.344c-.356 0-.9-.122-.99-.273h1.218a8.34 8.34 0 0 1-1.604-1.597ZM19.699 14.256l-1.08 1.344c0 .06-.168.354.179.303a7.16 7.16 0 0 0 1.208-.293c.109 0 .07-.192-.109-.171-.178.02-.683.05-.99.11l.832-1.272s.069-.132-.04-.02ZM16.598 20c.54-.2.987-.545 1.271-.98.327-.638 0-.893-.513-.981a3.284 3.284 0 0 0-2.03.333c-.454.353-.396.706-.058.98.41.262.857.48 1.33.648Z" fill="#000"/><path d="M16.193 21.672c-.111.231-.266.437-.456.607a1.694 1.694 0 0 1-.99.384 2.1 2.1 0 0 1-1.456-.435 2.29 2.29 0 0 1-.525-.445 1.06 1.06 0 0 0-.356-.262s.742 4.142 2.545 4.799 2.12-.758 2.179-1.142a5.758 5.758 0 0 0-.812-3.263c-.02-.313-.03-.111-.129-.243Z" fill="#F06351"/><path d="M14.569 22.824a3.363 3.363 0 0 1-1.3-.474 3.435 3.435 0 0 1-1.039-1.007.144.144 0 0 1 .13-.198.137.137 0 0 1 .1.043 3.22 3.22 0 0 0 2.089 1.313c.328-.025.646-.13.927-.306.28-.175.516-.417.687-.704l.139-.192.099.212s.366.768.99.808c.624.04 1.04-.414 1.595-1.293a.138.138 0 0 1 .153-.032.138.138 0 0 1 .045.032c.032.02.055.053.064.09a.154.154 0 0 1-.015.112c-.633 1.01-1.257 1.455-1.861 1.414a1.517 1.517 0 0 1-.642-.253 1.556 1.556 0 0 1-.468-.514 2.254 2.254 0 0 1-.74.67c-.294.165-.62.26-.953.28Z" fill="#000"/><path d="M25.988 19.116a58.728 58.728 0 0 0-5.021 5.244 31.57 31.57 0 0 1-5.24 4.94c-.217-.535-1.604-1.525-1.604-1.525s-3.1-2.162-5.13-3.86a34.1 34.1 0 0 1-3.1-3.03l-1.98-.112c2.862 4.25 7.05 7.384 11.884 8.892.852-.142 3.238-1.88 5.021-3.294a58.145 58.145 0 0 0 5.883-5.951c.498-.595.88-1.281 1.13-2.021a37.39 37.39 0 0 0-1.843.717Z" fill="#F06351"/></g><g clip-path="url(#b)" fill="#111"><path d="M90.264 26.538A6.865 6.865 0 0 1 89 22.231v-6.385a6.95 6.95 0 0 1 1.186-4.385c.869-1 2.212-1.461 4.188-1.461 1.976 0 3.24.461 4.03 1.308a5.422 5.422 0 0 1 1.186 3.769v1.538h-3.873v-1.769a3.691 3.691 0 0 0-.237-1.538 1.12 1.12 0 0 0-.456-.473 1.164 1.164 0 0 0-.65-.143c-.553 0-.948.154-1.106.539a4.846 4.846 0 0 0-.237 1.692v8.23a3.112 3.112 0 0 0 .316 1.616c.158.385.553.539 1.106.539s.87-.154 1.027-.539c.18-.52.26-1.067.237-1.615v-1.846h3.873v1.538a5.775 5.775 0 0 1-1.186 3.846c-.79.923-2.133 1.385-4.03 1.385-1.897-.077-3.32-.539-4.11-1.539ZM104.253 10.23h4.504l3.32 17.54h-3.636l-.632-3.693h-2.608l-.632 3.692h-3.715l3.399-17.538Zm3.24 11.54-.948-6.847-.949 6.846h1.897ZM114.843 13.154h-2.687V10.23h9.404v2.846h-2.687v14.692h-4.03V13.154ZM128.752 10.23h6.955v1.847h-4.505v5.77h3.635v1.768h-3.635v6.462h4.505v1.77h-7.034V10.23h.079ZM137.761 10.23h1.739l5.137 11.616V10.231h2.055v17.538h-1.581l-5.216-12v12h-2.134V10.231ZM149.063 10.23h6.954v1.847h-4.504v5.77h3.635v1.768h-3.635v6.462h4.504v1.77h-6.954V10.23ZM158.072 10.23h3.635a6.452 6.452 0 0 1 4.031 1.078c.869.692 1.264 1.923 1.264 3.538 0 2.23-.711 3.616-2.213 4.077l2.529 8.77h-2.449l-2.371-8.232h-1.976v8.231h-2.529V10.231h.079Zm3.477 7.54a3.523 3.523 0 0 0 2.292-.616c.474-.385.711-1.154.711-2.308a4.839 4.839 0 0 0-.237-1.692 1.974 1.974 0 0 0-.869-.923 3.69 3.69 0 0 0-1.739-.308h-1.106v5.77h.948v.076ZM170.163 26.461A7.614 7.614 0 0 1 169.057 22v-5.846a12.268 12.268 0 0 1 .395-3.308 3.92 3.92 0 0 1 1.502-2c.882-.508 1.9-.75 2.924-.692 1.66 0 2.845.384 3.556 1.23a5.773 5.773 0 0 1 1.107 3.847v.615h-2.371v-.538c.003-.645-.05-1.288-.158-1.924a1.533 1.533 0 0 0-.633-1 2.491 2.491 0 0 0-1.501-.384 2.417 2.417 0 0 0-1.581.461 1.734 1.734 0 0 0-.632 1.231 14.024 14.024 0 0 0-.158 2.077v6.539a6.816 6.816 0 0 0 .474 2.923c.316.615.949.846 1.897.846.374.045.754-.018 1.092-.182.337-.165.617-.422.805-.741a6.922 6.922 0 0 0 .553-3.077v-1.23h-2.292v-1.77h4.584v8.692h-1.581l-.237-2a3.143 3.143 0 0 1-1.226 1.658 3.287 3.287 0 0 1-2.014.573 4.047 4.047 0 0 1-1.899-.352 3.938 3.938 0 0 1-1.5-1.187ZM183.678 21.615l-3.873-11.307h2.371l2.766 8.461 2.687-8.461H190l-3.872 11.307v6.154h-2.371v-6.154h-.079Z"/></g><defs><clipPath id="a"><path fill="#fff" d="M0 0h33v38H0z"/></clipPath><clipPath id="b"><path fill="#fff" transform="translate(89 10)" d="M0 0h101v18H0z"/></clipPath></defs></svg>