<svg xmlns="http://www.w3.org/2000/svg" xmlns:xlink="http://www.w3.org/1999/xlink"><defs><clipPath id="a"><path fill="#fff" d="M0 0h140v194H0z"/></clipPath><clipPath id="a"><path fill="#fff" d="M0 0h30v32H0z"/></clipPath><clipPath id="a"><path fill="#fff" d="M0 0h202v59H0z"/></clipPath><clipPath id="a"><path fill="#fff" d="M0 0h33v38H0z"/></clipPath><clipPath id="b"><path fill="#fff" transform="translate(89 10)" d="M0 0h101v18H0z"/></clipPath><clipPath id="a"><path fill="#fff" d="M0 0h101v18H0z"/></clipPath><clipPath id="a"><path fill="#fff" d="M0 0h33v38H0z"/></clipPath><clipPath id="a"><path fill="#fff" d="M0 0h174v50H0z"/></clipPath><clipPath id="a"><path fill="#fff" d="M0 0h101v18H0z"/></clipPath><clipPath id="a"><path fill="#fff" d="M0 0h33v38H0z"/></clipPath></defs><symbol id="button-mobile-closed"><g fill="none"><path stroke="#000" stroke-width="2" d="M0 3h24M0 11h24M0 19h24"/></g></symbol><symbol id="button-mobile-opened"><g fill="none"><path transform="scale(.97098 1.0282) rotate(-45 24.51 7.237)" stroke="#000" stroke-width="1.5" d="M0-.75h24.758"/><path transform="matrix(.68659 .72705 -.68659 .72705 1 2)" stroke="#000" stroke-width="1.5" d="M0-.75h24.758"/></g></symbol><symbol id="cat-pro"><g fill="none"><path d="M60.56 2.878a7.601 7.601 0 0 1 2.25-2.3c.5-.35.8-.35 1.1.3.4.95.75 1.95.45 3a1.144 1.144 0 0 0 .2 1.05c.3.4.55.8.8 1.15a3.135 3.135 0 0 1 .45 3.1 2.716 2.716 0 0 0-.1 1.55c.099.495.099 1.005 0 1.5a1.875 1.875 0 0 1-1.35 1.6c-.64.122-1.211.479-1.6 1a.525.525 0 0 1-.45.25c-.6.1-2.1-1.25-2.1-1.85v-.3c.05-1.8-.05-1.95-1.7-2.7a2.196 2.196 0 0 1-.9-.6c-.3-.4-.7-.35-1.15-.2-.45.15-.7.45-.65.95.15 1.21.2 2.432.15 3.65a.94.94 0 0 0 .1.4c1.55 2.25 2.15 4.9 2.9 7.45.6 1.95 1.7 3 3.7 3.15.32.026.637.076.95.15a2.08 2.08 0 0 1 1.7 1.6c.35 1.05.15 1.3-.9 1.3h-3.25a1.62 1.62 0 0 1-1.15-.4 5.856 5.856 0 0 0-1.7-1 3.63 3.63 0 0 1-1.7-1.3 14.307 14.307 0 0 0-2-2.25c-1.4-1.45-2.9-2.85-4.2-4.35a5.69 5.69 0 0 1-1.6-3.8c0-.45-.1-.65-.6-.45a.965.965 0 0 1-.5.15c-1.4 0-2.1.85-2.6 2.1-.45 1.05-1.05 2.05-1.6 3.1a5.195 5.195 0 0 0-.5 2.1c0 1.2.3 1.6 1.4 2 .7.25 1.35.5 1.7 1.2.4.8.3 1-.55 1.05h-3.4a.94.94 0 0 1-.95-.55l-.9-1.5a3.025 3.025 0 0 1-.35-2.7 5.93 5.93 0 0 0 .05-2.65 4.21 4.21 0 0 1 .85-3.5c.3-.35.3-.5-.2-.6a25.03 25.03 0 0 1-5.9-2.05.05.05 0 0 1-.05-.05c-1.6-.6-1.9-.5-2.35 1.15-.4 1.4-.8 2.8-1.1 4.25-.35 1.6.05 3.1.55 4.6.2.6.8.55 1.25.7 1 .3 1.85.7 2.25 1.75.35.8.3.9-.55.9-.85 0-1.7-.05-2.6 0a3.32 3.32 0 0 1-2.1-.7c-2.4-1.6-3.1-4.05-3.3-6.7-.1-1.65-1-2.95-2.05-4.2-.2-.25-.4-.35-.7-.15a22.156 22.156 0 0 1-3.35 1.5 13.355 13.355 0 0 0-6.1 4.4 5.315 5.315 0 0 0-1.1 2.55c-.15.9.1 1.3 1 1.55s1.35.75 1.45 1.7c.05.4-.1.6-.5.6h-4.05a.824.824 0 0 1-.65-.4 4.28 4.28 0 0 1-.95-2.75 25.301 25.301 0 0 1 .45-5.15 3.152 3.152 0 0 1 1.7-2.4c2.95-1.4 4.5-4.05 5.9-6.8.3-.55.05-.65-.45-.6a8.236 8.236 0 0 0-3.85 1.6 35.315 35.315 0 0 0-4.15 3.55 8.335 8.335 0 0 1-5.15 2.45c-3.65.2-5.35-1.85-5.2-5.15a4.845 4.845 0 0 1 1.2-3.05 2.125 2.125 0 0 1 2.25-.75c.75.2.95.6.65 1.35-.15.3-.35.55-.5.85a3.75 3.75 0 0 0-.5 1c-.55 1.5.2 2.55 1.75 2.7 1.65.15 3-.55 4.25-1.55a22.466 22.466 0 0 0 4-4.15 10.395 10.395 0 0 1 7.2-4.05c1.15-.15 2.15-.65 3.25-.95 2.056-.627 4.199-.93 6.35-.9a6.5 6.5 0 0 0 2.9-.55c2.45-1 5-1 7.55-.5 2 .4 4 .9 5.95 1.4a8.29 8.29 0 0 0 3.5-.1 33.894 33.894 0 0 1 6.7-1 9.08 9.08 0 0 1 4.3.85c1 .45 1 .45.75 1.4Z" fill="#000"/></g></symbol><symbol id="cat-slim"><g fill="none"><g clip-path="url(#a)"><path d="M109.68 0h-.76A7 7 0 0 0 106 3.18a31.04 31.04 0 0 0-2.58 6.82 3.257 3.257 0 0 1-2.96 2.68A14.68 14.68 0 0 0 90 20.24a54.62 54.62 0 0 0-3.7 8c-2.84 7.36-5.02 14.96-7.7 22.38C77.34 54 77.28 54 73.48 54c-4.54 0-4.22-.7-4.28 4.3 0 1.58.48 2.38 2.16 2.3.52 0 1.3-.26 1.5.42.2.68-.48.98-.88 1.38a18 18 0 0 1-8.66 4.88c-3.8 1.02-7.68 1.82-11.38 3.06-9.5 3.18-18.28 7.62-25.12 15.14a56 56 0 0 0-9.48 15.68C10 118.44 6.44 136.64 3.68 155.02c-1.3 8.62-2.22 17.28-2.92 26C.4 185.3 0 189.64 0 194h66.66c.11-.88-.05-1.773-.46-2.56a10.002 10.002 0 0 0-7.66-6.14c-1.4-.32-1.56-.74-.7-1.84a20.692 20.692 0 0 0 3.18-6.2c3.26-9.62 4.52-19.66 6.1-29.6A60.002 60.002 0 0 1 74 126a43.206 43.206 0 0 1 11.18-12.74c1.66-1.26 1.72-1.26 2 .88.2 1.42.24 2.88.34 4.32.6 9.449.48 18.93-.36 28.36a123.337 123.337 0 0 0-.3 22A150.344 150.344 0 0 0 91.4 194H118a10.817 10.817 0 0 0-8.48-8.88 18.007 18.007 0 0 0-7.52.4c-1.2.28-1.7 0-1.8-1.3a112.707 112.707 0 0 1 2-31.64 355.46 355.46 0 0 0 6.12-36.36 35.499 35.499 0 0 1 4.56-14c2.38-4.24 4.46-8.64 6.8-12.9a11.745 11.745 0 0 0 .84-10.38c-.54-1.42-1.06-2.86-1.72-4.22-2-3.9-4-7.76-5.84-11.7-.98-2-.76-2.24 1.42-2.3 3.26 0 3.26 0 3.32-3.28v-1.32c0-1.38-.52-2.14-2-2h-3.04c-1.38 0-1.78-.58-1.44-2a12.483 12.483 0 0 1 10.26-8.86 43.999 43.999 0 0 1 13.24.86 1.999 1.999 0 0 0 2.5-1.28c.8-2 1.68-4 2.58-6a1.997 1.997 0 0 0-.2-2.28c-6.4-8.12-13.34-15.7-22.8-20.56a2.977 2.977 0 0 1-1.76-2.24 39.163 39.163 0 0 0-2.54-8.32A7 7 0 0 0 109.68 0Z" fill="#000"/></g></g></symbol><symbol id="icon-3"><g fill="none"><path fill-rule="evenodd" clip-rule="evenodd" d="M19.117.076a1 1 0 0 1 1.09.217c.909.908 2.097 2.878 3.059 5.918C24.237 9.28 25 13.508 25 19a1 1 0 0 1-1 1h-3.5v9a1 1 0 1 1-2 0V1a1 1 0 0 1 .617-.924ZM20.5 18h2.491c-.086-4.816-.786-8.512-1.632-11.186-.278-.88-.57-1.643-.859-2.295V18ZM6.5 0a1 1 0 0 1 1 1v28a1 1 0 1 1-2 0V1a1 1 0 0 1 1-1Z" fill="#fff"/><path fill-rule="evenodd" clip-rule="evenodd" d="M2 0a1 1 0 0 1 1 1v5.5c0 .557.192 1.315.7 1.917.48.566 1.314 1.083 2.8 1.083a1 1 0 1 1 0 2c-2.015 0-3.43-.733-4.326-1.792A5.068 5.068 0 0 1 1 6.5V1a1 1 0 0 1 1-1Z" fill="#fff"/><path fill-rule="evenodd" clip-rule="evenodd" d="M11 0a1 1 0 0 0-1 1v5.5a3.07 3.07 0 0 1-.7 1.917C8.82 8.983 7.984 9.5 6.5 9.5a1 1 0 0 0 0 2c2.014 0 3.43-.733 4.326-1.792A5.068 5.068 0 0 0 12 6.5V1a1 1 0 0 0-1-1Z" fill="#fff"/></g></symbol><symbol id="intro-1"><g fill="none"><g clip-path="url(#a)"><path d="M27.844 2.767c-.1-.45-.48-.767-.912-.767h-.005c-4.938.033-16.945.916-21.793 8.38-2.518 3.878-2.735 8.913-.644 14.965.016.047.048.079.07.122-.747 1.973-1.037 3.286-1.044 3.323-.11.54.214 1.072.72 1.188a.88.88 0 0 0 .197.022c.433 0 .822-.321.916-.79.02-.102 2.409-10.373 10.854-16.378.431-.306.547-.927.26-1.387-.288-.46-.87-.585-1.3-.277-4.79 3.405-7.739 8.008-9.473 11.656-1.242-4.578-.916-8.377.986-11.305 3.743-5.764 12.622-7.154 17.982-7.448C23.505 5.872 22.245 9.174 22.245 15c0 3.12-.83 5.522-2.465 7.14-2.62 2.591-6.88 2.834-9.993 2.584-.518-.045-.967.371-1.006.922-.04.55.347 1.03.863 1.072.623.051 1.29.082 1.981.082 3.17 0 6.87-.663 9.43-3.194 2.034-2.011 3.065-4.906 3.065-8.605 0-9.099 3.216-11.096 3.232-11.105.39-.209.594-.677.492-1.129Z" fill="#fff"/></g></g></symbol><symbol id="intro-2"><g fill="none"><path d="M11.375 0c-1.631 0-2.9 1.36-2.9 3.081 0 1.722 1.269 3.081 2.9 3.081s2.9-1.359 2.9-3.08c0-1.723-1.269-3.082-2.9-3.082Zm0 1.178c.997 0 1.722.843 1.722 1.903 0 .997-.789 1.903-1.722 1.903-.997 0-1.722-.842-1.722-1.903 0-.997.78-1.903 1.722-1.903ZM.5 24.741c0 1.178.408 2.175 1.36 2.99.996.852 2.174.78 2.174.78h19.032c.779 0 1.812-.381 2.628-1.45.843-.997.788-2.357.788-2.357V7.486c0-.435-.109-.598-.743-.598s-.689.271-.689.589v17.218c-.018.3-.072 1.088-.743 1.722-.734.625-1.45.544-1.45.544s-18.125 0-19.031-.027c-.344-.064-.906-.19-1.45-.907-.508-.725-.408-1.63-.408-1.63V7.176c0-.462-.236-.634-.725-.634-.49 0-.743.172-.743.58v17.618ZM16.813 8.428c-1.088.236-2.175.38-4.26 2.356-2.084 1.994-3.625 1.903-5.166 1.813-1.54-.09-3.171-1.54-3.443-1.903-.336-.354-.906-.118-1.088.118-.154.235-.154.643.109.996 1.269 1.179 2.447 2.085 4.713 2.266 2.265.218 4.44-.806 5.89-2.266 1.45-1.45 2.175-1.721 3.263-1.903 2.628-.417 4.168.617 5.075 1.27.997 1.087 1.268.778 1.54.47.544-.716-.226-1.268-1.087-1.903-1.813-1.178-3.535-1.631-5.528-1.269l-.018-.045Zm-9.063 7.16c-1.178 0-2.084.996-2.084 2.265 0 1.269.906 2.266 2.084 2.266s2.084-.997 2.084-2.266c0-1.269-.906-2.266-2.084-2.266Zm11.781.779c-1.54 0-2.81 1.36-2.81 2.99 0 1.632 1.27 2.991 2.81 2.991s2.81-1.36 2.81-2.99c0-1.632-1.27-2.991-2.81-2.991Zm0 1.45c.798 0 1.45.698 1.45 1.54 0 .861-.652 1.541-1.45 1.541-.797 0-1.45-.698-1.45-1.54 0-.861.653-1.541 1.45-1.541Z" fill="#fff"/></g></symbol><symbol id="intro-3"><g fill="none"><path fill-rule="evenodd" clip-rule="evenodd" d="M19.117.076a1 1 0 0 1 1.09.217c.909.908 2.097 2.878 3.059 5.918C24.237 9.28 25 13.508 25 19a1 1 0 0 1-1 1h-3.5v9a1 1 0 1 1-2 0V1a1 1 0 0 1 .617-.924ZM20.5 18h2.491c-.086-4.816-.786-8.512-1.632-11.186-.278-.88-.57-1.643-.859-2.295V18ZM6.5 0a1 1 0 0 1 1 1v28a1 1 0 1 1-2 0V1a1 1 0 0 1 1-1Z" fill="#fff"/><path fill-rule="evenodd" clip-rule="evenodd" d="M2 0a1 1 0 0 1 1 1v5.5c0 .557.192 1.315.7 1.917.48.566 1.314 1.083 2.8 1.083a1 1 0 1 1 0 2c-2.015 0-3.43-.733-4.326-1.792A5.068 5.068 0 0 1 1 6.5V1a1 1 0 0 1 1-1Z" fill="#fff"/><path fill-rule="evenodd" clip-rule="evenodd" d="M11 0a1 1 0 0 0-1 1v5.5a3.07 3.07 0 0 1-.7 1.917C8.82 8.983 7.984 9.5 6.5 9.5a1 1 0 0 0 0 2c2.014 0 3.43-.733 4.326-1.792A5.068 5.068 0 0 0 12 6.5V1a1 1 0 0 0-1-1Z" fill="#fff"/></g></symbol><symbol id="intro-4"><g fill="none"><path d="M6.12 0c-1.066 0-1.066 1.583 0 1.583h6.668v1.604C5.96 3.62.563 9.414.563 16.485c0 4.01 1.75 7.63 4.512 10.069.48.422.544 1.171.107 1.636L3.646 29.74c-.747.686.362 1.752 1.034 1.003l2.006-2.037a1.164 1.164 0 0 1 1.312-.211 12.785 12.785 0 0 0 11.105.063c.427-.211.96-.127 1.301.211l1.942 1.974c.683.633 1.664-.317 1.046-1.003l-1.451-1.477c-.448-.454-.384-1.203.106-1.636a13.467 13.467 0 0 0 3.415-4.583 13.335 13.335 0 0 0 1.194-5.57c0-7.071-5.43-12.876-12.268-13.288V1.583h6.667c1.067 0 1.067-1.583 0-1.583H6.121ZM2.004 16.475c0-6.533 5.195-11.82 11.606-11.82 6.4 0 11.596 5.287 11.596 11.82 0 6.543-5.195 11.841-11.596 11.841-6.4 0-11.606-5.298-11.606-11.841ZM12.799 8.38c0-1.098 1.664-1.098 1.664 0v8.633a.84.84 0 0 1-.25.597.858.858 0 0 1-.604.247.816.816 0 0 1-.57-.23.798.798 0 0 1-.24-.561V8.38Zm-4.993 2.617c.308 0 .604-.12.822-.337a1.144 1.144 0 0 0 0-1.627 1.17 1.17 0 0 0-.822-.336c-.288.027-.555.16-.75.371a1.144 1.144 0 0 0 0 1.547c.195.212.462.344.75.372v.01Zm11.596 0c.308 0 .604-.12.822-.337a1.144 1.144 0 0 0 0-1.627 1.17 1.17 0 0 0-.822-.336c-.288.027-.555.16-.75.371a1.144 1.144 0 0 0 0 1.547c.195.212.462.344.75.372v.01ZM8.969 23.588c0 1.53-2.326 1.53-2.326 0s2.326-1.53 2.326 0Zm4.64 3.44a1.176 1.176 0 0 0 .893-.293 1.153 1.153 0 0 0 .381-.851 1.14 1.14 0 0 0-.38-.852 1.167 1.167 0 0 0-.894-.293c-.287.027-.555.16-.75.371a1.143 1.143 0 0 0 0 1.547c.195.212.463.344.75.372ZM5.491 16.645a1.139 1.139 0 0 1-.297.883 1.162 1.162 0 0 1-.86.377 1.173 1.173 0 0 1-.86-.377 1.148 1.148 0 0 1-.298-.883c.028-.285.162-.55.376-.742a1.17 1.17 0 0 1 1.564 0c.214.193.348.457.375.742Zm17.388 1.15a1.173 1.173 0 0 0 .894-.294 1.152 1.152 0 0 0 .38-.851 1.14 1.14 0 0 0-.38-.852 1.164 1.164 0 0 0-.894-.293c-.287.027-.555.16-.749.371a1.144 1.144 0 0 0 0 1.547c.195.212.462.345.75.372Zm-2.314 5.805c0 1.52-2.326 1.52-2.326-.01 0-1.531 2.326-1.531 2.326 0v.01Z" fill="#fff"/></g></symbol><symbol id="intro__item--1"><g fill="none"><path d="M40.372 227V39.4c-.187.187-2.333.747-6.44 1.68-3.92.933-8.4 1.867-13.44 2.8-5.04.933-9.52 1.773-13.44 2.52-3.92.747-5.973 1.12-6.16 1.12V24.84c3.174-.747 6.814-1.773 10.92-3.08A119.738 119.738 0 0 0 24.692 17c4.48-1.867 8.68-4.2 12.6-7 4.107-2.8 7.56-6.067 10.36-9.8h22.68V227h-29.96Z" fill="#F2F2F2"/></g></symbol><symbol id="intro__item--2"><g fill="none"><path d="M.625 229v-21.28l57.68-89.88c4.293-6.72 8.213-12.973 11.76-18.76 3.733-5.787 6.72-11.853 8.96-18.2 2.426-6.533 3.64-14 3.64-22.4 0-10.453-1.68-18.667-5.04-24.64-3.36-5.973-9.24-8.96-17.64-8.96-7.094 0-12.6 1.96-16.52 5.88s-6.627 9.053-8.12 15.4c-1.494 6.347-2.24 13.16-2.24 20.44v7.56H3.145v-7.84c0-13.627 1.773-25.293 5.32-35 3.733-9.893 9.613-17.547 17.64-22.96C34.318 2.947 45.145.24 58.584.24c18.293 0 31.92 5.227 40.88 15.68 8.96 10.267 13.44 24.547 13.44 42.84 0 9.707-1.214 18.2-3.64 25.48-2.24 7.28-5.227 14.093-8.96 20.44-3.734 6.347-7.84 12.88-12.32 19.6l-52.08 79.52h71.68V229H.625Z" fill="#F2F2F2"/></g></symbol><symbol id="intro__item--3"><g fill="none"><path d="M55.921 231.52c-12.32 0-22.586-2.333-30.8-7-8.213-4.667-14.373-11.387-18.48-20.16-4.106-8.773-6.16-19.133-6.16-31.08v-7.56h29.68v5.04c.187 6.72.934 12.787 2.24 18.2 1.494 5.413 4.014 9.707 7.56 12.88 3.734 3.173 9.054 4.76 15.96 4.76 7.28 0 12.787-1.68 16.52-5.04 3.734-3.547 6.254-8.493 7.56-14.84 1.307-6.347 1.96-13.627 1.96-21.84 0-11.947-2.24-21.653-6.72-29.12-4.293-7.653-11.946-11.853-22.96-12.6-.56-.187-1.306-.28-2.24-.28h-1.96V92.92h3.92c10.64-.373 18.294-3.173 22.96-8.4 4.667-5.227 7-13.907 7-26.04 0-10.267-1.773-18.48-5.32-24.64-3.36-6.16-10.173-9.24-20.44-9.24-10.266 0-17.08 3.453-20.44 10.36-3.36 6.72-5.226 15.4-5.6 26.04v4.76H.481V58.2c0-12.133 2.054-22.493 6.16-31.08 4.107-8.587 10.267-15.213 18.48-19.88 8.4-4.667 18.76-7 31.08-7 12.507 0 22.867 2.333 31.08 7 8.214 4.667 14.374 11.387 18.48 20.16 4.107 8.587 6.16 18.947 6.16 31.08 0 13.627-2.986 24.547-8.96 32.76-5.786 8.213-13.626 13.813-23.52 16.8 6.907 2.053 12.694 5.6 17.36 10.64 4.854 5.04 8.587 11.48 11.2 19.32 2.614 7.653 3.92 16.613 3.92 26.88 0 13.44-1.866 25.2-5.6 35.28-3.733 9.893-9.706 17.64-17.92 23.24-8.213 5.413-19.04 8.12-32.48 8.12Z" fill="#F2F2F2"/></g></symbol><symbol id="intro__item--4"><g fill="none"><path d="M66.324 227v-60.76H.524v-31.36L59.604.2h35.28v139.44h25.48v26.6h-25.48V227h-28.56Zm-36.96-87.36h36.96V36.6l-36.96 103.04Z" fill="#F2F2F2"/></g></symbol><symbol id="logo-desktop-group"><g fill="none"><g clip-path="url(#a)"><path d="M59.743 23.806A25.423 25.423 0 0 0 51.71 13.43a25.632 25.632 0 0 0-12.165-5.02 25.688 25.688 0 0 0-13.062 1.671 25.536 25.536 0 0 0-10.491 7.916 25.327 25.327 0 0 0-5.132 12.06 25.267 25.267 0 0 0 1.59 12.997 25.417 25.417 0 0 0 7.892 10.484 25.628 25.628 0 0 0 12.094 5.184 113.22 113.22 0 0 1-1.686-6.794c1.509.973 3.098 1.819 4.749 2.529 0 0 .12 2.142.28 4.533 1.783.03 3.566-.126 5.317-.466a2.108 2.108 0 0 1 0-.754c.29-1.855 1.088-5.198 1.247-7.35a15.108 15.108 0 0 0 2.894-3.68l-.06.436c-.549 4.226-1.696 8.739-2.395 9.989a5.537 5.537 0 0 1-.828 1.14 25.646 25.646 0 0 0 9.918-4.727 25.466 25.466 0 0 0 7.004-8.43 25.302 25.302 0 0 0 .867-21.34Zm-1.466 3.76c-.44.426-1.347.714-1.497-.576-.15-1.29-.19-2.192-.19-2.192s-1.925-3.402-2.643-3.442c-.719-.04-5.817 3.442-7.164 4.96-1.167 1.28-1.397 1.19-1.397 3.442 0 1.696.22 8.104.1 13.004l-8.131 2.152a64.15 64.15 0 0 1-7.783 1.707l-.997-5.783h-.14l-2.564-13.064s-3.801-1.428-5.198-1.815a3.772 3.772 0 0 0-3.991.625 5.005 5.005 0 0 0-1.726 3.819c.21.46.371.943.479 1.438.05.476-1.197.426-1.996.426-.798 0-.918-1.428-.289-3.104a22.567 22.567 0 0 1 1.816-3.71 11.774 11.774 0 0 1 2.065-2.867s.14-.337 1.247-.238c1.108.1 7.264.427 7.264.427l.05-2.252a143.265 143.265 0 0 1 20.193-1.33v1.816a22.578 22.578 0 0 1 8.122-1.984.913.913 0 0 1 .768.387c.34.427 2.405 2.976 2.644 3.343.67.953 1.28 1.947 1.826 2.976a6.174 6.174 0 0 1-.868 1.825v.01Z" fill="#FDC305"/><path d="M56.331 21.495c.47.595.878 1.121.998 1.28.67.953 1.28 1.947 1.826 2.976-.19.63-.48 1.226-.858 1.765-.44.427-1.347.714-1.497-.575-.15-1.29-.21-2.143-.21-2.143s-1.925-3.402-2.643-3.442c-.719-.04-5.817 3.442-7.164 4.96-1.167 1.28-1.397 1.19-1.397 3.442 0 1.488.17 6.596.13 11.14 1.806.198 4.46.694 5.258 1.864 0 0-.29-7.122 7.792-3.392 0 0 .28-9.711 11.434-7.221a43.583 43.583 0 0 0-13.669-10.654ZM45.825 19.194a89.212 89.212 0 0 0-1.397-16.397s-.15-1.29-.868-.238a14.084 14.084 0 0 0-1.197 3.968 71.128 71.128 0 0 0-12.79.337c-.819-2.728-2.216-3.968-2.884-3.64-.669.327-.748 3.253-.748 3.253l-.33 14.046a143.277 143.277 0 0 1 20.214-1.33Z" fill="#F06351"/><path d="M45.246 46.74c.13-1.062.2-2.47.24-4.028l-8.132 2.153a64.152 64.152 0 0 1-7.782 1.756l1.108 4.96c0 .108 0 .217.07.327 1.509.973 3.097 1.82 4.748 2.529a42.36 42.36 0 0 0 6.864-4.097v.06a15.113 15.113 0 0 0 2.884-3.66Z" fill="#E55645"/><path d="M31.927 16.09c-.05-.1.998.674 1.407.912.409.238.608.416.608.585 0 .169-.26.337-.618.337-.36 0-.918-.119-.998-.258-.08-.139.599 0 .938 0h.29a8.04 8.04 0 0 1-1.627-1.577ZM39.41 16.198s-.998 1.27-1.088 1.33c-.09.059-.17.337.19.287.412-.061.82-.154 1.217-.278.11-.06.07-.198-.12-.178-.19.02-.678.05-.997.109l.848-1.26s.03-.119-.05-.01ZM36.277 22.259a2.29 2.29 0 0 0 1.087-.992c.28-.655 0-.903-.438-.992a2.456 2.456 0 0 0-1.746.337c-.39.367-.34.724 0 .992.337.263.705.483 1.097.655Z" fill="#000"/><path d="M35.918 23.509c-.115.225-.27.427-.46.595-.283.227-.633.36-.997.377a2.184 2.184 0 0 1-1.536-.437 1.992 1.992 0 0 1-.53-.446.997.997 0 0 0-.358-.248s.748 4.077 2.564 4.732c1.816.654 2.155-.754 2.205-1.131a5.56 5.56 0 0 0-.819-3.214c0-.298-.02-.1-.07-.228Z" fill="#F06351"/><path d="M34.222 24.64a3.504 3.504 0 0 1-2.345-1.419.148.148 0 0 1 0-.198.139.139 0 0 1 .154-.031.138.138 0 0 1 .046.03 3.203 3.203 0 0 0 2.105 1.3 2.113 2.113 0 0 0 1.636-.992l.14-.188.1.218s.378.754.997.794c.618.04 1.057-.417 1.626-1.28a.143.143 0 0 1 .2-.04.143.143 0 0 1 .04.199c-.666.972-1.294 1.438-1.886 1.398a1.55 1.55 0 0 1-1.117-.724 2.25 2.25 0 0 1-1.696.933Z" fill="#000"/><path d="M36.177 37.991c2.066 0 3.741-1.665 3.741-3.72 0-2.054-1.675-3.72-3.74-3.72-2.067 0-3.742 1.666-3.742 3.72 0 2.055 1.675 3.72 3.741 3.72Z" fill="#FDC305"/><path d="m41.136 31.246-3.123 1.3 1.147-5.585-7.482 9.68 3.122-1.298-1.147 5.594 7.483-9.691Zm-7.373 3.799 4.15-5.366-.808 3.967 1.995-.813-4.18 5.376.808-3.968-1.965.804ZM32.366 33.587c.617 0 1.117-.498 1.117-1.111 0-.614-.5-1.111-1.117-1.111s-1.117.497-1.117 1.11c0 .614.5 1.112 1.117 1.112ZM38.871 37.614c.435 0 .788-.351.788-.784a.786.786 0 0 0-.788-.783.786.786 0 0 0-.788.783c0 .433.353.784.788.784ZM39.829 35.461c.193 0 .349-.155.349-.347a.348.348 0 0 0-.35-.347.348.348 0 0 0-.348.347c0 .192.156.347.349.347Z" fill="#111"/><path d="M45.775 20.99a57.127 57.127 0 0 0-5.078 5.167 31.735 31.735 0 0 1-5.298 4.86c-.22-.525-1.626-1.507-1.626-1.507s-3.133-2.133-5.188-3.81a31.747 31.747 0 0 1-3.133-2.975l-1.996-.11a22.57 22.57 0 0 0 11.973 8.77c.858-.14 3.272-1.855 5.078-3.254a57.372 57.372 0 0 0 5.987-5.862 6.32 6.32 0 0 0 1.137-1.984c-1.137.377-1.856.704-1.856.704Z" fill="#F06351"/><path d="m65.07 3.472-8.44 9.364-1.217-1.974L63.544 0l1.527 3.472ZM62.507 17.12l5.527-4.076-.778-3.71-5.388 4.771.639 3.016ZM59.783 48.971l6.116 3.155 3.003-2.321-6.674-2.728-2.445 1.895ZM1.945 5.922l3.063-3.333 9.269 8.927-1.218 2.262L1.945 5.922ZM7.363 16.149l-4.69-3.105L.28 16.883l5.138 2.38 1.946-3.114ZM13.878 52.126l-4.54 3.323L12.133 59l4.01-3.987-2.264-2.887Z" fill="#FDC305"/><path d="M25.87 27.774s-3.8-1.428-5.197-1.815a3.771 3.771 0 0 0-3.991.625 5.03 5.03 0 0 0-1.726 3.819c.21.46.371.943.479 1.438.05.476-1.198.426-1.996.426s-.918-1.428-.29-3.104a22.568 22.568 0 0 1 1.817-3.71C9.528 28.27 0 34.777 0 34.777a45.981 45.981 0 0 1 8.171.238c5.238.526 4.989 4.632 4.989 4.632a38.727 38.727 0 0 1 5.617-1.1c2.115-.14 2.265 2.102 2.265 2.102l.529 3.83a18.216 18.216 0 0 1 2.644-2.342 6.071 6.071 0 0 1 4.37-1.29L25.87 27.775Z" fill="#F06351"/><path d="M85.424 38.216a7.92 7.92 0 0 1-1.403-5.06v-7.312a8.041 8.041 0 0 1 1.382-5.109c.929-1.163 2.515-1.741 4.76-1.735 2.244.007 3.764.517 4.559 1.53a6.427 6.427 0 0 1 1.333 4.378v1.716h-4.149v-1.862a9.497 9.497 0 0 0-.13-1.463 1.622 1.622 0 0 0-.47-.926 1.576 1.576 0 0 0-1.153-.36 1.498 1.498 0 0 0-.87.134c-.27.131-.49.34-.633.597a5.202 5.202 0 0 0-.34 2.145v9.28a4.55 4.55 0 0 0 .39 2.146c.145.243.36.44.617.567.258.126.549.177.836.145.282.038.57-.01.821-.14.252-.13.456-.333.582-.582.242-.686.347-1.41.31-2.135v-1.95h4.148v1.687a6.925 6.925 0 0 1-1.232 4.494C93.9 39.473 92.377 40 90.213 40s-3.858-.585-4.79-1.784ZM101.707 19.283h4.749l4.008 20.473h-3.948l-.711-4.523h-3.327l-.802 4.494h-4.008l4.039-20.444Zm3.657 13.376-1.263-8.229-1.252 8.229h2.515ZM113.541 22.363h-3.247v-3.08h10.741v3.08h-3.206v17.364h-4.298l.01-17.363Z" fill="#111"/><path d="M129.463 19.283h8.146v2.125h-5.21v6.756h4.228v2.018h-4.228v7.498h5.26v2.047h-8.196V19.283ZM140.025 19.283h2.004l6.011 13.58v-13.58h2.445v20.473h-1.873l-6.012-13.96v13.931h-2.485l-.09-20.444ZM153.722 19.283h8.137v2.125h-5.211v6.756h4.269v2.018h-4.229v7.498h5.231v2.047h-8.197V19.283ZM164.274 19.283h4.228a7.159 7.159 0 0 1 4.68 1.277c1.002.848 1.492 2.233 1.492 4.153 0 2.6-.865 4.189-2.595 4.767l3.006 10.247h-2.845l-2.756-9.593h-2.274v9.593h-2.936V19.283Zm4.008 8.774c.965.091 1.93-.173 2.705-.74.315-.363.55-.785.692-1.24.141-.454.185-.931.13-1.403a5.55 5.55 0 0 0-.291-1.95 1.832 1.832 0 0 0-.391-.625 1.892 1.892 0 0 0-.611-.428 4.887 4.887 0 0 0-2.054-.34h-1.292v6.765l1.112-.039ZM178.623 38.216A8.823 8.823 0 0 1 177.35 33v-6.825a12.863 12.863 0 0 1 .501-3.9 4.38 4.38 0 0 1 1.744-2.349 6.052 6.052 0 0 1 3.367-.819 5.408 5.408 0 0 1 2.258.271c.723.25 1.382.65 1.93 1.172a6.686 6.686 0 0 1 1.282 4.514v.76h-2.755v-.633a10.929 10.929 0 0 0-.18-2.262 1.946 1.946 0 0 0-.762-1.2 3.072 3.072 0 0 0-1.723-.399 2.574 2.574 0 0 0-1.814.546 2.474 2.474 0 0 0-.771 1.443 14.095 14.095 0 0 0-.171 2.428v7.594a7.155 7.155 0 0 0 .591 3.373c.272.327.617.59 1.009.767a2.905 2.905 0 0 0 2.494-.049c.384-.193.718-.468.976-.805a7.726 7.726 0 0 0 .612-3.559v-1.443h-2.666v-2.018h5.311v10.12h-1.814l-.29-2.35a3.601 3.601 0 0 1-1.403 1.936 3.77 3.77 0 0 1-2.335.667 4.787 4.787 0 0 1-2.292-.367 4.65 4.65 0 0 1-1.826-1.397ZM194.675 32.513l-4.539-13.23h2.726l3.216 9.866 3.167-9.866H202l-4.509 13.23v7.214h-2.806l-.01-7.214Z" fill="#444"/></g></g></symbol><symbol id="logo-footer"><g fill="none"><path d="M1.624 21.957A9.428 9.428 0 0 1 .02 16.238V7.762A9.559 9.559 0 0 1 1.523 1.94C2.625.613 4.327 0 6.831 0c2.503 0 4.106.613 5.107 1.736A7.433 7.433 0 0 1 13.44 6.74v2.043H8.533V6.434a5.116 5.116 0 0 0-.3-2.043 1.46 1.46 0 0 0-.579-.627 1.42 1.42 0 0 0-.823-.19c-.701 0-1.202.205-1.402.715a6.72 6.72 0 0 0-.3 2.247v10.928a4.3 4.3 0 0 0 .4 2.145c.2.51.701.714 1.402.714s1.102-.204 1.302-.715c.227-.69.33-1.417.3-2.144v-2.451h4.907v2.042a7.922 7.922 0 0 1-1.502 5.107C10.937 23.387 9.234 24 6.831 24c-2.403-.102-4.206-.715-5.207-2.043ZM19.348.306h5.708l4.206 23.285h-4.606l-.801-4.902H20.55l-.801 4.902h-4.707L19.348.306Zm4.106 15.32-1.202-9.09-1.201 9.09h2.403ZM32.767 4.187h-3.405V.307H41.28v3.778h-3.405v19.506h-5.107V4.188ZM50.392.306h8.812v2.451h-5.708v7.66h4.606v2.349h-4.606v8.579h5.708v2.349H50.29V.306h.1ZM61.808.306h2.203l6.509 15.422V.306h2.603v23.285h-2.002L64.51 7.66V23.59h-2.703V.306ZM76.128.306h8.812v2.451h-5.708v7.66h4.606v2.349h-4.606v8.579h5.708v2.349h-8.812V.306ZM87.543.306h4.607a7.896 7.896 0 0 1 5.107 1.43c1.102.92 1.602 2.553 1.602 4.698 0 2.962-.901 4.8-2.804 5.413l3.205 11.642h-3.105l-3.004-10.927h-2.503v10.927h-3.205V.306h.1Zm4.407 10.009a4.313 4.313 0 0 0 2.904-.817c.6-.51.901-1.532.901-3.064a6.722 6.722 0 0 0-.3-2.247 2.576 2.576 0 0 0-1.102-1.225 4.488 4.488 0 0 0-2.203-.409h-1.402v7.66h1.202v.102ZM102.865 21.855a10.485 10.485 0 0 1-1.402-5.923V8.17c-.025-1.48.144-2.957.501-4.391a5.186 5.186 0 0 1 1.902-2.656 6.438 6.438 0 0 1 3.705-.919c2.103 0 3.606.51 4.507 1.634a7.93 7.93 0 0 1 1.402 5.107v.817h-3.004v-.715c.004-.855-.063-1.71-.201-2.553a2.045 2.045 0 0 0-.801-1.328 3.05 3.05 0 0 0-1.903-.51 2.961 2.961 0 0 0-2.002.612 2.331 2.331 0 0 0-.801 1.634 19.568 19.568 0 0 0-.201 2.758v8.68a9.433 9.433 0 0 0 .601 3.881c.401.817 1.202 1.124 2.403 1.124.475.06.956-.024 1.384-.242.428-.218.782-.56 1.02-.984a9.572 9.572 0 0 0 .701-4.085V14.4h-2.904v-2.349h5.808v11.54h-2.003l-.3-2.655a4.172 4.172 0 0 1-1.553 2.202 4.03 4.03 0 0 1-2.553.76 4.924 4.924 0 0 1-2.406-.468 5.032 5.032 0 0 1-1.9-1.575ZM119.989 15.421 115.082.408h3.004l3.505 11.235L124.996.408H128l-4.907 15.013v8.17h-3.004v-8.17h-.1Z" fill="#111"/></g></symbol><symbol id="logo-mobile-group"><g fill="none"><g clip-path="url(#a)"><path d="M6.012 20.935V18.65a139.122 139.122 0 0 1 19.976-1.343c0 .606 0 1.222-.06 1.839 1.9-.86 3.896-1.478 5.943-1.84a16.767 16.767 0 0 0-6.767-8.283 16.248 16.248 0 0 0-10.306-2.4c-3.6.375-6.98 1.946-9.62 4.471a16.948 16.948 0 0 0-4.99 9.507l5.824.333ZM26.978 24.481c-1.149 1.294-1.376 1.213-1.376 3.486v9.275a16.694 16.694 0 0 0 5.425-6.052A17.082 17.082 0 0 0 33 23.239c-.013-1.052-.12-2.1-.317-3.133a32.866 32.866 0 0 0-5.705 4.375ZM6.299 25.987s-3.754-1.455-5.14-1.85A8.33 8.33 0 0 0 0 23.856a17.067 17.067 0 0 0 2.463 8.233A16.633 16.633 0 0 0 8.598 38L6.299 25.987Z" fill="#FDC305"/><path d="M26.038 17.297A92.52 92.52 0 0 0 24.65.657s-.139-1.304-.881-.243a14.583 14.583 0 0 0-1.189 3.981 68.296 68.296 0 0 0-12.647.344C9.15 2.02 7.774.758 7.11 1.01c-.663.253-.713 3.345-.713 3.345L6.071 18.6a139.08 139.08 0 0 1 19.967-1.303Z" fill="#F06351"/><path d="M12.29 14.145c0-.09.991.687 1.397.93.406.242.604.424.604.596s-.267.344-.624.344c-.356 0-.9-.122-.99-.273h1.218a8.34 8.34 0 0 1-1.604-1.597ZM19.699 14.256l-1.08 1.344c0 .06-.168.354.179.303a7.16 7.16 0 0 0 1.208-.293c.109 0 .07-.192-.109-.171-.178.02-.683.05-.99.11l.832-1.272s.069-.132-.04-.02ZM16.598 20c.54-.2.987-.545 1.271-.98.327-.638 0-.893-.513-.981a3.284 3.284 0 0 0-2.03.333c-.454.353-.396.706-.058.98.41.262.857.48 1.33.648Z" fill="#000"/><path d="M16.193 21.672c-.111.231-.266.437-.456.607a1.694 1.694 0 0 1-.99.384 2.1 2.1 0 0 1-1.456-.435 2.29 2.29 0 0 1-.525-.445 1.06 1.06 0 0 0-.356-.262s.742 4.142 2.545 4.799 2.12-.758 2.179-1.142a5.758 5.758 0 0 0-.812-3.263c-.02-.313-.03-.111-.129-.243Z" fill="#F06351"/><path d="M14.569 22.824a3.363 3.363 0 0 1-1.3-.474 3.435 3.435 0 0 1-1.039-1.007.144.144 0 0 1 .13-.198.137.137 0 0 1 .1.043 3.22 3.22 0 0 0 2.089 1.313c.328-.025.646-.13.927-.306.28-.175.516-.417.687-.704l.139-.192.099.212s.366.768.99.808c.624.04 1.04-.414 1.595-1.293a.138.138 0 0 1 .153-.032.138.138 0 0 1 .045.032c.032.02.055.053.064.09a.154.154 0 0 1-.015.112c-.633 1.01-1.257 1.455-1.861 1.414a1.517 1.517 0 0 1-.642-.253 1.556 1.556 0 0 1-.468-.514 2.254 2.254 0 0 1-.74.67c-.294.165-.62.26-.953.28Z" fill="#000"/><path d="M25.988 19.116a58.728 58.728 0 0 0-5.021 5.244 31.57 31.57 0 0 1-5.24 4.94c-.217-.535-1.604-1.525-1.604-1.525s-3.1-2.162-5.13-3.86a34.1 34.1 0 0 1-3.1-3.03l-1.98-.112c2.862 4.25 7.05 7.384 11.884 8.892.852-.142 3.238-1.88 5.021-3.294a58.145 58.145 0 0 0 5.883-5.951c.498-.595.88-1.281 1.13-2.021a37.39 37.39 0 0 0-1.843.717Z" fill="#F06351"/></g><g clip-path="url(#b)" fill="#111"><path d="M90.264 26.538A6.865 6.865 0 0 1 89 22.231v-6.385a6.95 6.95 0 0 1 1.186-4.385c.869-1 2.212-1.461 4.188-1.461 1.976 0 3.24.461 4.03 1.308a5.422 5.422 0 0 1 1.186 3.769v1.538h-3.873v-1.769a3.691 3.691 0 0 0-.237-1.538 1.12 1.12 0 0 0-.456-.473 1.164 1.164 0 0 0-.65-.143c-.553 0-.948.154-1.106.539a4.846 4.846 0 0 0-.237 1.692v8.23a3.112 3.112 0 0 0 .316 1.616c.158.385.553.539 1.106.539s.87-.154 1.027-.539c.18-.52.26-1.067.237-1.615v-1.846h3.873v1.538a5.775 5.775 0 0 1-1.186 3.846c-.79.923-2.133 1.385-4.03 1.385-1.897-.077-3.32-.539-4.11-1.539ZM104.253 10.23h4.504l3.32 17.54h-3.636l-.632-3.693h-2.608l-.632 3.692h-3.715l3.399-17.538Zm3.24 11.54-.948-6.847-.949 6.846h1.897ZM114.843 13.154h-2.687V10.23h9.404v2.846h-2.687v14.692h-4.03V13.154ZM128.752 10.23h6.955v1.847h-4.505v5.77h3.635v1.768h-3.635v6.462h4.505v1.77h-7.034V10.23h.079ZM137.761 10.23h1.739l5.137 11.616V10.231h2.055v17.538h-1.581l-5.216-12v12h-2.134V10.231ZM149.063 10.23h6.954v1.847h-4.504v5.77h3.635v1.768h-3.635v6.462h4.504v1.77h-6.954V10.23ZM158.072 10.23h3.635a6.452 6.452 0 0 1 4.031 1.078c.869.692 1.264 1.923 1.264 3.538 0 2.23-.711 3.616-2.213 4.077l2.529 8.77h-2.449l-2.371-8.232h-1.976v8.231h-2.529V10.231h.079Zm3.477 7.54a3.523 3.523 0 0 0 2.292-.616c.474-.385.711-1.154.711-2.308a4.839 4.839 0 0 0-.237-1.692 1.974 1.974 0 0 0-.869-.923 3.69 3.69 0 0 0-1.739-.308h-1.106v5.77h.948v.076ZM170.163 26.461A7.614 7.614 0 0 1 169.057 22v-5.846a12.268 12.268 0 0 1 .395-3.308 3.92 3.92 0 0 1 1.502-2c.882-.508 1.9-.75 2.924-.692 1.66 0 2.845.384 3.556 1.23a5.773 5.773 0 0 1 1.107 3.847v.615h-2.371v-.538c.003-.645-.05-1.288-.158-1.924a1.533 1.533 0 0 0-.633-1 2.491 2.491 0 0 0-1.501-.384 2.417 2.417 0 0 0-1.581.461 1.734 1.734 0 0 0-.632 1.231 14.024 14.024 0 0 0-.158 2.077v6.539a6.816 6.816 0 0 0 .474 2.923c.316.615.949.846 1.897.846.374.045.754-.018 1.092-.182.337-.165.617-.422.805-.741a6.922 6.922 0 0 0 .553-3.077v-1.23h-2.292v-1.77h4.584v8.692h-1.581l-.237-2a3.143 3.143 0 0 1-1.226 1.658 3.287 3.287 0 0 1-2.014.573 4.047 4.047 0 0 1-1.899-.352 3.938 3.938 0 0 1-1.5-1.187ZM183.678 21.615l-3.873-11.307h2.371l2.766 8.461 2.687-8.461H190l-3.872 11.307v6.154h-2.371v-6.154h-.079Z"/></g></g></symbol><symbol id="logo-mobile-title"><g fill="none"><g clip-path="url(#a)" fill="#111"><path d="M1.264 16.538A6.865 6.865 0 0 1 0 12.231V5.846a6.95 6.95 0 0 1 1.185-4.384C2.055.462 3.398 0 5.374 0s3.24.462 4.03 1.308a5.422 5.422 0 0 1 1.186 3.769v1.538H6.718V4.846a3.693 3.693 0 0 0-.238-1.538 1.12 1.12 0 0 0-.456-.473 1.163 1.163 0 0 0-.65-.143c-.553 0-.948.154-1.106.539a4.846 4.846 0 0 0-.237 1.692v8.23a3.111 3.111 0 0 0 .316 1.616c.158.385.553.539 1.106.539s.87-.154 1.027-.539c.18-.52.26-1.067.238-1.615v-1.846h3.872v1.538a5.775 5.775 0 0 1-1.185 3.846c-.79.923-2.134 1.385-4.031 1.385-1.897-.077-3.32-.539-4.11-1.539ZM15.253.23h4.504l3.32 17.54H19.44l-.632-3.693h-2.608l-.632 3.692h-3.715L15.253.231Zm3.24 11.54-.948-6.847-.949 6.846h1.897ZM25.843 3.154h-2.687V.23h9.404v2.846h-2.687v14.692h-4.03V3.154ZM39.752.23h6.955v1.847h-4.505v5.77h3.635v1.768h-3.635v6.462h4.505v1.77h-7.034V.23h.079ZM48.761.23H50.5l5.137 11.616V.231h2.055v17.538h-1.58l-5.217-12v12h-2.134V.231ZM60.063.23h6.954v1.847h-4.504v5.77h3.635v1.768h-3.635v6.462h4.504v1.77h-6.954V.23ZM69.072.23h3.635a6.451 6.451 0 0 1 4.03 1.078c.87.692 1.265 1.923 1.265 3.538 0 2.23-.71 3.616-2.212 4.077l2.528 8.77h-2.45l-2.37-8.231h-1.976v8.23h-2.529V.231h.079Zm3.477 7.54a3.524 3.524 0 0 0 2.292-.616c.474-.385.711-1.154.711-2.308a4.848 4.848 0 0 0-.237-1.692 1.975 1.975 0 0 0-.869-.923 3.69 3.69 0 0 0-1.739-.308h-1.106v5.77h.948v.076ZM81.163 16.462A7.613 7.613 0 0 1 80.058 12V6.154a12.26 12.26 0 0 1 .395-3.308 3.916 3.916 0 0 1 1.502-2c.882-.508 1.9-.75 2.924-.692 1.66 0 2.845.384 3.556 1.23a5.77 5.77 0 0 1 1.107 3.847v.615H87.17v-.538a11.04 11.04 0 0 0-.158-1.923 1.533 1.533 0 0 0-.633-1A2.493 2.493 0 0 0 84.878 2a2.416 2.416 0 0 0-1.58.462c-.187.152-.338.34-.447.551a1.701 1.701 0 0 0-.186.68 14.01 14.01 0 0 0-.158 2.076v6.539a6.816 6.816 0 0 0 .474 2.923c.316.615.949.846 1.897.846.374.045.754-.018 1.092-.182.337-.165.617-.422.805-.741a6.908 6.908 0 0 0 .553-3.077v-1.23h-2.292v-1.77h4.584v8.692h-1.58l-.238-2a3.143 3.143 0 0 1-1.226 1.658 3.288 3.288 0 0 1-2.014.573 4.046 4.046 0 0 1-1.899-.352 3.932 3.932 0 0 1-1.5-1.186ZM94.678 11.615 90.805.308h2.371l2.766 8.461L98.63.308H101l-3.872 11.307v6.154h-2.371v-6.154h-.08Z"/></g></g></symbol><symbol id="logo-pic"><g fill="none"><g clip-path="url(#a)"><path d="M6.012 20.935V18.65a139.135 139.135 0 0 1 19.976-1.343c0 .606 0 1.222-.06 1.838 1.9-.86 3.896-1.477 5.943-1.838a16.767 16.767 0 0 0-6.767-8.285 16.248 16.248 0 0 0-10.306-2.398c-3.6.374-6.98 1.945-9.62 4.47a16.948 16.948 0 0 0-4.99 9.506l5.824.334ZM26.978 24.481c-1.149 1.293-1.376 1.213-1.376 3.486v9.275a16.692 16.692 0 0 0 5.425-6.052A17.08 17.08 0 0 0 33 23.237c-.013-1.051-.12-2.1-.317-3.132a32.856 32.856 0 0 0-5.705 4.375ZM6.299 25.987s-3.754-1.455-5.14-1.85A8.33 8.33 0 0 0 0 23.856a17.066 17.066 0 0 0 2.463 8.233A16.633 16.633 0 0 0 8.598 38L6.299 25.987Z" fill="#FDC305"/><path d="M26.038 17.297A92.52 92.52 0 0 0 24.65.657s-.139-1.304-.881-.243a14.583 14.583 0 0 0-1.189 3.981 68.295 68.295 0 0 0-12.647.344C9.15 2.02 7.774.758 7.11 1.01c-.664.253-.713 3.345-.713 3.345L6.071 18.6a139.094 139.094 0 0 1 19.967-1.303Z" fill="#F06351"/><path d="M12.29 14.145c0-.09.991.687 1.397.93.406.242.604.424.604.596s-.267.343-.623.343c-.357 0-.902-.12-.99-.272h1.217a8.34 8.34 0 0 1-1.604-1.597ZM19.699 14.256l-1.08 1.344c0 .06-.168.354.179.303.41-.062.814-.16 1.208-.293.109 0 .07-.192-.109-.172-.178.02-.683.051-.99.112l.832-1.274s.069-.13-.04-.02ZM16.59 20.41c.458-.207.838-.562 1.079-1.01.277-.658 0-.92-.436-1.011a2.367 2.367 0 0 0-1.723.343c-.387.364-.337.728-.05 1.01.348.27.727.494 1.13.668Z" fill="#000"/><path d="M16.193 21.672c-.111.231-.266.437-.456.607a1.693 1.693 0 0 1-.99.384 2.1 2.1 0 0 1-1.456-.435 2.289 2.289 0 0 1-.525-.444 1.059 1.059 0 0 0-.356-.263s.742 4.142 2.545 4.8c1.803.656 2.12-.759 2.179-1.143a5.758 5.758 0 0 0-.812-3.263c-.02-.313-.03-.111-.129-.243Z" fill="#F06351"/><path d="M14.569 22.824a3.364 3.364 0 0 1-1.3-.474 3.437 3.437 0 0 1-1.039-1.007.145.145 0 0 1 .076-.187.136.136 0 0 1 .153.031 3.22 3.22 0 0 0 2.09 1.314c.328-.025.646-.13.927-.306.28-.176.516-.417.687-.704l.139-.192.099.212s.366.768.99.808c.624.04 1.04-.414 1.595-1.293a.138.138 0 0 1 .198 0c.032.02.055.053.064.09a.154.154 0 0 1-.015.112c-.633 1.01-1.257 1.455-1.861 1.414a1.518 1.518 0 0 1-.642-.253 1.555 1.555 0 0 1-.468-.514 2.255 2.255 0 0 1-.74.67c-.294.165-.62.26-.953.28Z" fill="#000"/><path d="M25.988 19.116a58.7 58.7 0 0 0-5.021 5.244 31.579 31.579 0 0 1-5.24 4.94c-.217-.535-1.604-1.525-1.604-1.525s-3.1-2.162-5.13-3.86a34.1 34.1 0 0 1-3.1-3.03l-1.98-.112c2.861 4.25 7.05 7.384 11.884 8.892.852-.142 3.238-1.88 5.021-3.294a58.146 58.146 0 0 0 5.883-5.951c.498-.596.88-1.281 1.13-2.021-1.09.394-1.843.717-1.843.717Z" fill="#F06351"/></g></g></symbol><symbol id="logo-tablet-group"><g fill="none"><g clip-path="url(#a)"><path d="M51.208 19.05a22.293 22.293 0 0 0-6.886-9.125A21.672 21.672 0 0 0 33.896 5.51a21.504 21.504 0 0 0-11.197 1.469 21.953 21.953 0 0 0-8.992 6.963 22.58 22.58 0 0 0-4.399 10.606 22.76 22.76 0 0 0 1.364 11.433 22.311 22.311 0 0 0 6.763 9.22 21.685 21.685 0 0 0 10.367 4.56c-.496-1.823-1-3.839-1.446-5.976 1.294.856 2.656 1.6 4.071 2.225 0 0 .103 1.884.24 3.987a21.37 21.37 0 0 0 4.558-.41 1.908 1.908 0 0 1 0-.663c.248-1.632.932-4.572 1.069-6.465a13.247 13.247 0 0 0 2.48-3.237l-.052.384c-.47 3.716-1.453 7.686-2.052 8.785a4.862 4.862 0 0 1-.71 1.004 21.746 21.746 0 0 0 8.501-4.158 22.277 22.277 0 0 0 6.004-7.416 22.77 22.77 0 0 0 .743-18.77Zm-1.257 3.308c-.376.375-1.154.628-1.283-.506-.128-1.135-.162-1.929-.162-1.929s-1.65-2.992-2.266-3.027c-.616-.035-4.986 3.027-6.14 4.362-1.001 1.126-1.198 1.047-1.198 3.028 0 1.491.188 7.127.086 11.437l-6.97 1.894a53.798 53.798 0 0 1-6.67 1.5l-.856-5.086h-.12l-2.197-11.49s-3.259-1.257-4.456-1.597a3.157 3.157 0 0 0-1.79-.235 3.188 3.188 0 0 0-1.63.785 4.419 4.419 0 0 0-1.1 1.515 4.499 4.499 0 0 0-.38 1.844c.18.405.318.83.41 1.265.043.419-1.026.375-1.71.375-.684 0-.787-1.256-.248-2.73.42-1.135.941-2.227 1.556-3.264a10.35 10.35 0 0 1 1.77-2.521s.12-.297 1.07-.21c.949.088 6.225.375 6.225.375l.043-1.98a119.71 119.71 0 0 1 17.31-1.169v1.597a18.95 18.95 0 0 1 6.96-1.745.766.766 0 0 1 .659.34c.29.375 2.06 2.617 2.266 2.94a24.51 24.51 0 0 1 1.565 2.617 5.495 5.495 0 0 1-.744 1.606v.009Z" fill="#FDC305"/><path d="M48.284 17.018c.402.523.752.986.855 1.125a24.51 24.51 0 0 1 1.565 2.618 5.493 5.493 0 0 1-.735 1.553c-.377.375-1.155.628-1.283-.506-.128-1.134-.18-1.885-.18-1.885s-1.65-2.992-2.266-3.027c-.616-.035-4.986 3.027-6.14 4.362-1 1.126-1.197 1.047-1.197 3.027 0 1.31.145 5.802.11 9.798 1.549.175 3.823.61 4.508 1.64 0 0-.248-6.264 6.679-2.983 0 0 .239-8.542 9.8-6.352a37.509 37.509 0 0 0-11.716-9.37ZM39.279 14.994A80.462 80.462 0 0 0 38.08.572s-.128-1.134-.744-.209a12.63 12.63 0 0 0-1.026 3.49 59.424 59.424 0 0 0-10.963.296C24.647 1.75 23.449.66 22.876.948c-.573.287-.641 2.861-.641 2.861l-.282 12.354c5.74-.809 11.53-1.2 17.326-1.169Z" fill="#F06351"/><path d="M38.782 39.222c.111-.934.171-2.173.205-3.542l-6.97 1.893a53.8 53.8 0 0 1-6.67 1.544l.95 4.362c0 .096 0 .192.06.288 1.294.856 2.655 1.6 4.07 2.225a36.127 36.127 0 0 0 5.884-3.603v.052a13.243 13.243 0 0 0 2.471-3.22Z" fill="#E55645"/><path d="M27.366 12.263c-.043-.087.855.594 1.206.803.35.21.521.366.521.515 0 .148-.222.296-.53.296-.308 0-.787-.104-.855-.227-.068-.122.513 0 .804 0h.248a6.98 6.98 0 0 1-1.394-1.387ZM33.78 12.36s-.855 1.116-.932 1.168c-.077.053-.146.297.162.253a6.798 6.798 0 0 0 1.044-.244c.094-.052.06-.175-.103-.157-.163.017-.582.043-.855.096l.727-1.108s.025-.105-.043-.009ZM31.095 17.69c.396-.178.724-.485.932-.873.24-.576 0-.794-.377-.872a2.06 2.06 0 0 0-1.496.296c-.334.323-.29.637 0 .873.289.231.605.424.94.576Z" fill="#000"/><path d="M30.787 18.79a1.786 1.786 0 0 1-.394.523c-.243.2-.543.316-.855.331-.47.047-.942-.09-1.317-.384a1.722 1.722 0 0 1-.453-.392.853.853 0 0 0-.308-.218s.641 3.585 2.198 4.161c1.556.576 1.847-.663 1.89-.994a4.99 4.99 0 0 0-.701-2.827c0-.262-.018-.087-.06-.2Z" fill="#F06351"/><path d="M29.333 19.784c-.4-.059-.785-.2-1.13-.414a3.019 3.019 0 0 1-.88-.834.132.132 0 0 1 0-.174.119.119 0 0 1 .132-.027.12.12 0 0 1 .04.027c.21.303.48.56.79.756.309.196.654.328 1.014.387.284-.022.56-.113.804-.264.244-.152.449-.36.598-.609l.12-.166.085.192s.325.663.856.698c.53.035.906-.366 1.393-1.125a.122.122 0 0 1 .171-.035.128.128 0 0 1 .034.174c-.57.855-1.108 1.265-1.616 1.23a1.309 1.309 0 0 1-.55-.207 1.34 1.34 0 0 1-.407-.43 1.944 1.944 0 0 1-.636.578c-.252.142-.531.225-.818.243Z" fill="#000"/><path d="M31.009 31.527c1.771 0 3.207-1.465 3.207-3.272 0-1.807-1.436-3.271-3.207-3.271s-3.207 1.464-3.207 3.271 1.436 3.272 3.207 3.272Z" fill="#FDC305"/><path d="m35.259 25.594-2.677 1.143.984-4.912-6.414 8.515 2.677-1.143-.984 4.921 6.414-8.524Zm-6.32 3.342 3.558-4.72-.693 3.49 1.71-.716-3.583 4.729.693-3.49-1.684.707ZM27.742 27.653a.968.968 0 0 0 .958-.977.968.968 0 0 0-.958-.977.968.968 0 0 0-.957.977c0 .54.428.977.957.977ZM33.318 31.195a.683.683 0 0 0 .676-.689c0-.38-.303-.69-.676-.69a.683.683 0 0 0-.675.69c0 .38.302.69.675.69ZM34.14 29.302c.164 0 .298-.137.298-.305a.302.302 0 0 0-.299-.306c-.165 0-.3.137-.3.306 0 .168.135.305.3.305Z" fill="#111"/><path d="M39.236 16.573a49.692 49.692 0 0 0-4.353 4.546 27.476 27.476 0 0 1-4.54 4.274c-.19-.462-1.395-1.326-1.395-1.326s-2.685-1.875-4.447-3.35a27.528 27.528 0 0 1-2.685-2.617l-1.71-.096c2.468 3.68 6.085 6.397 10.262 7.712.735-.122 2.805-1.631 4.353-2.861a49.799 49.799 0 0 0 5.13-5.157 5.597 5.597 0 0 0 .976-1.744c-.975.331-1.591.62-1.591.62ZM22.175 22.54s-3.258-1.256-4.456-1.596a3.158 3.158 0 0 0-1.789-.235 3.19 3.19 0 0 0-1.631.785 4.418 4.418 0 0 0-1.099 1.515 4.499 4.499 0 0 0-.38 1.844c.18.405.318.83.41 1.265.043.418-1.027.375-1.71.375-.685 0-.787-1.257-.249-2.731.42-1.134.942-2.226 1.557-3.263C8.168 22.977 0 28.7 0 28.7a38.411 38.411 0 0 1 7.004.21c4.49.462 4.276 4.074 4.276 4.074a32.466 32.466 0 0 1 4.815-.969c1.813-.122 1.94 1.85 1.94 1.85l.454 3.368c.688-.76 1.447-1.45 2.266-2.06a5.111 5.111 0 0 1 3.746-1.134l-2.326-11.498Z" fill="#F06351"/><path d="M74.218 32.47a6.796 6.796 0 0 1-1.2-4.336v-6.268a6.9 6.9 0 0 1 1.183-4.378c.795-.998 2.153-1.493 4.074-1.488 1.921.006 3.222.443 3.902 1.312a5.515 5.515 0 0 1 1.14 3.752v1.47h-3.55V20.94a8.142 8.142 0 0 0-.111-1.254 1.39 1.39 0 0 0-.403-.794 1.349 1.349 0 0 0-.987-.309 1.28 1.28 0 0 0-.744.116c-.23.112-.42.29-.542.511a4.464 4.464 0 0 0-.292 1.838v7.956c-.039.63.076 1.26.335 1.838.124.209.307.378.528.486.221.109.47.152.715.124.242.034.488-.008.704-.12.215-.11.39-.285.497-.498.208-.588.298-1.21.266-1.83V27.33h3.55v1.446a5.942 5.942 0 0 1-1.054 3.852C81.474 33.55 80.17 34 78.318 34c-1.853 0-3.302-.501-4.1-1.53ZM88.156 16.242h4.065l3.43 17.55h-3.379l-.609-3.878h-2.847l-.686 3.852H84.7l3.456-17.524Zm3.13 11.466-1.08-7.053-1.073 7.053h2.153ZM98.285 18.883h-2.779v-2.64h9.194v2.64h-2.745v14.883h-3.679l.009-14.883Z" fill="#111"/><path d="M111.913 16.242h6.973v1.822h-4.46v5.791h3.619v1.73h-3.619v6.426h4.503v1.755h-7.016V16.242ZM120.953 16.242h1.716l5.145 11.641v-11.64h2.093V33.79h-1.604l-5.146-11.966v11.941h-2.127l-.077-17.524ZM132.678 16.242h6.964v1.822h-4.46v5.791h3.654v1.73h-3.62v6.426h4.477v1.755h-7.015V16.242ZM141.709 16.242h3.619a6.118 6.118 0 0 1 4.005 1.095c.858.727 1.278 1.914 1.278 3.56 0 2.229-.74 3.59-2.221 4.086l2.573 8.783h-2.436l-2.358-8.223h-1.947v8.223h-2.513V16.243Zm3.431 7.521a3.381 3.381 0 0 0 2.315-.635c.27-.31.471-.672.592-1.061a2.9 2.9 0 0 0 .111-1.203 4.773 4.773 0 0 0-.248-1.672 1.582 1.582 0 0 0-.858-.902 4.179 4.179 0 0 0-1.758-.293h-1.106v5.8l.952-.034ZM153.991 32.47a7.566 7.566 0 0 1-1.089-4.47v-5.85a11.02 11.02 0 0 1 .428-3.342 3.753 3.753 0 0 1 1.493-2.014 5.17 5.17 0 0 1 2.881-.702 4.623 4.623 0 0 1 1.933.232 4.53 4.53 0 0 1 1.652 1.005 5.739 5.739 0 0 1 1.098 3.869v.652h-2.358v-.544c.016-.65-.036-1.299-.155-1.938a1.662 1.662 0 0 0-.652-1.028 2.626 2.626 0 0 0-1.475-.343 2.2 2.2 0 0 0-1.552.468 2.118 2.118 0 0 0-.66 1.237 11.983 11.983 0 0 0-.146 2.08v6.51a6.13 6.13 0 0 0 .506 2.892c.233.28.528.505.863.657a2.486 2.486 0 0 0 2.135-.042 2.41 2.41 0 0 0 .835-.69 6.616 6.616 0 0 0 .524-3.05v-1.237h-2.282v-1.73h4.546v8.674h-1.553l-.248-2.014a3.088 3.088 0 0 1-1.201 1.659 3.224 3.224 0 0 1-1.998.572 4.09 4.09 0 0 1-1.962-.315 3.982 3.982 0 0 1-1.563-1.197ZM167.731 27.582l-3.885-11.34h2.332l2.753 8.457 2.711-8.457H174l-3.859 11.34v6.184h-2.402l-.008-6.184Z" fill="#444"/></g></g></symbol><symbol id="logo-tablet"><g fill="none"><path d="M51.208 19.05a22.293 22.293 0 0 0-6.886-9.125A21.672 21.672 0 0 0 33.896 5.51a21.504 21.504 0 0 0-11.197 1.469 21.954 21.954 0 0 0-8.992 6.962 22.581 22.581 0 0 0-4.399 10.607 22.76 22.76 0 0 0 1.364 11.433 22.31 22.31 0 0 0 6.763 9.22 21.684 21.684 0 0 0 10.367 4.56c-.496-1.823-1-3.839-1.446-5.976 1.294.856 2.656 1.6 4.071 2.225 0 0 .103 1.884.24 3.987 1.529.027 3.057-.11 4.558-.41a1.908 1.908 0 0 1 0-.663c.248-1.632.932-4.572 1.069-6.465a13.243 13.243 0 0 0 2.48-3.237l-.052.384c-.47 3.716-1.453 7.686-2.052 8.785a4.865 4.865 0 0 1-.71 1.004 21.747 21.747 0 0 0 8.501-4.158 22.278 22.278 0 0 0 6.004-7.416 22.77 22.77 0 0 0 .743-18.77Zm-1.257 3.308c-.376.375-1.154.628-1.283-.507a30.81 30.81 0 0 1-.162-1.928s-1.65-2.992-2.266-3.027c-.616-.035-4.986 3.027-6.14 4.362-1.001 1.126-1.198 1.047-1.198 3.028 0 1.491.188 7.127.086 11.437l-6.97 1.894a53.797 53.797 0 0 1-6.67 1.5l-.856-5.086h-.12l-2.197-11.49s-3.259-1.257-4.456-1.597a3.157 3.157 0 0 0-1.79-.235 3.189 3.189 0 0 0-1.63.785 4.418 4.418 0 0 0-1.1 1.515 4.499 4.499 0 0 0-.38 1.844c.18.405.318.83.41 1.265.043.419-1.026.375-1.71.375-.684 0-.787-1.256-.248-2.73.42-1.135.941-2.227 1.556-3.264a10.352 10.352 0 0 1 1.77-2.521s.12-.297 1.07-.21c.949.088 6.225.375 6.225.375l.043-1.98a119.71 119.71 0 0 1 17.31-1.169v1.597a18.947 18.947 0 0 1 6.96-1.745.765.765 0 0 1 .659.34c.29.375 2.06 2.617 2.266 2.94a24.51 24.51 0 0 1 1.565 2.617 5.493 5.493 0 0 1-.744 1.606v.009Z" fill="#FDC305"/><path d="M48.284 17.018c.402.523.752.986.855 1.125a24.51 24.51 0 0 1 1.565 2.618 5.493 5.493 0 0 1-.735 1.553c-.377.375-1.155.628-1.283-.506-.128-1.134-.18-1.885-.18-1.885s-1.65-2.992-2.266-3.027c-.616-.035-4.986 3.027-6.14 4.362-1 1.126-1.197 1.047-1.197 3.028 0 1.308.145 5.801.11 9.797 1.549.175 3.823.61 4.508 1.64 0 0-.248-6.264 6.679-2.983 0 0 .239-8.542 9.8-6.352a37.507 37.507 0 0 0-11.716-9.37ZM39.279 14.994A80.462 80.462 0 0 0 38.08.572s-.128-1.134-.744-.209a12.63 12.63 0 0 0-1.026 3.49 59.424 59.424 0 0 0-10.963.296C24.647 1.75 23.449.66 22.876.948c-.573.287-.641 2.861-.641 2.861l-.282 12.354c5.74-.809 11.53-1.2 17.326-1.169Z" fill="#F06351"/><path d="M38.782 39.222c.111-.934.171-2.172.205-3.542l-6.97 1.893a53.8 53.8 0 0 1-6.67 1.544l.95 4.363c0 .096 0 .191.06.287 1.294.856 2.655 1.6 4.07 2.225a36.127 36.127 0 0 0 5.884-3.603v.052a13.243 13.243 0 0 0 2.471-3.22Z" fill="#E55645"/><path d="M27.366 12.263c-.043-.087.855.594 1.206.803.35.21.521.366.521.515 0 .148-.222.296-.53.296-.308 0-.787-.104-.855-.227-.068-.122.513 0 .804 0h.248a6.98 6.98 0 0 1-1.394-1.387ZM33.78 12.36s-.855 1.116-.932 1.168c-.077.053-.146.297.162.253a6.81 6.81 0 0 0 1.044-.244c.094-.052.06-.175-.103-.157-.163.017-.582.044-.855.096l.727-1.108s.025-.105-.043-.009ZM31.095 17.69c.396-.178.724-.485.932-.873.24-.575 0-.794-.377-.872a2.061 2.061 0 0 0-1.496.297c-.334.322-.29.636 0 .872.289.231.605.425.94.576Z" fill="#000"/><path d="M30.787 18.79a1.785 1.785 0 0 1-.394.523c-.243.2-.543.316-.855.331-.47.047-.942-.09-1.317-.384a1.722 1.722 0 0 1-.453-.392.855.855 0 0 0-.308-.218s.641 3.585 2.198 4.161c1.556.576 1.847-.663 1.89-.994a4.99 4.99 0 0 0-.701-2.827c0-.262-.018-.087-.06-.2Z" fill="#F06351"/><path d="M29.333 19.784c-.4-.059-.785-.2-1.13-.414a3.016 3.016 0 0 1-.88-.834.132.132 0 0 1 0-.174.119.119 0 0 1 .132-.027.12.12 0 0 1 .04.027c.21.303.48.56.79.756.309.196.654.327 1.014.387a1.78 1.78 0 0 0 .804-.264c.244-.152.449-.36.598-.609l.12-.166.085.192s.325.663.856.698c.53.035.906-.366 1.393-1.125a.121.121 0 0 1 .171-.035.128.128 0 0 1 .034.174c-.57.855-1.108 1.265-1.616 1.23a1.309 1.309 0 0 1-.55-.207 1.34 1.34 0 0 1-.407-.43 1.946 1.946 0 0 1-.636.578c-.252.142-.531.225-.818.243Z" fill="#000"/><path d="M31.009 31.527c1.771 0 3.207-1.465 3.207-3.272 0-1.807-1.436-3.271-3.207-3.271s-3.207 1.464-3.207 3.271 1.436 3.272 3.207 3.272Z" fill="#FDC305"/><path d="m35.259 25.594-2.677 1.143.984-4.912-6.414 8.515 2.677-1.142-.984 4.92 6.414-8.524Zm-6.32 3.342 3.558-4.72-.693 3.49 1.71-.716-3.583 4.729.693-3.49-1.684.707ZM27.742 27.653a.968.968 0 0 0 .958-.977.968.968 0 0 0-.958-.977.968.968 0 0 0-.957.977c0 .54.428.977.957.977ZM33.318 31.195a.683.683 0 0 0 .676-.689c0-.38-.303-.69-.676-.69a.683.683 0 0 0-.675.69c0 .38.302.69.675.69ZM34.14 29.302c.164 0 .298-.137.298-.305a.302.302 0 0 0-.299-.306c-.165 0-.3.137-.3.306 0 .168.135.305.3.305Z" fill="#111"/><path d="M39.236 16.573a49.68 49.68 0 0 0-4.353 4.546 27.484 27.484 0 0 1-4.54 4.275c-.19-.463-1.395-1.326-1.395-1.326s-2.685-1.876-4.447-3.35a27.527 27.527 0 0 1-2.685-2.618l-1.71-.096c2.468 3.68 6.085 6.397 10.262 7.712.735-.122 2.805-1.631 4.353-2.861a49.809 49.809 0 0 0 5.13-5.156 5.597 5.597 0 0 0 .976-1.745c-.975.331-1.591.62-1.591.62ZM22.175 22.54s-3.258-1.256-4.456-1.596a3.158 3.158 0 0 0-1.789-.235 3.19 3.19 0 0 0-1.631.785 4.418 4.418 0 0 0-1.099 1.515 4.499 4.499 0 0 0-.38 1.844c.18.405.318.83.41 1.265.043.419-1.027.375-1.71.375-.685 0-.787-1.256-.249-2.73.42-1.135.942-2.227 1.557-3.264C8.168 22.977 0 28.7 0 28.7a38.402 38.402 0 0 1 7.004.21c4.49.462 4.276 4.074 4.276 4.074a32.466 32.466 0 0 1 4.815-.968c1.813-.123 1.94 1.85 1.94 1.85l.454 3.367c.688-.76 1.447-1.45 2.266-2.06a5.111 5.111 0 0 1 3.746-1.133l-2.326-11.5Z" fill="#F06351"/></g></symbol><symbol id="tick"><g fill="none"><path d="m10 19.499-7.6-8.598L1 12.485l9 10.182 15-16.97L23.6 4 10 19.499Z" fill="#68B738"/></g></symbol><symbol id="footer-logo 2"><g fill="none"><g clip-path="url(#a)" fill="#111"><path d="M1.264 16.538A6.865 6.865 0 0 1 0 12.231V5.846a6.95 6.95 0 0 1 1.185-4.384C2.055.462 3.398 0 5.374 0s3.24.462 4.03 1.308a5.422 5.422 0 0 1 1.186 3.769v1.538H6.718V4.846a3.693 3.693 0 0 0-.238-1.538 1.12 1.12 0 0 0-.456-.473 1.163 1.163 0 0 0-.65-.143c-.553 0-.948.154-1.106.539a4.846 4.846 0 0 0-.237 1.692v8.23a3.111 3.111 0 0 0 .316 1.616c.158.385.553.539 1.106.539s.87-.154 1.027-.539c.18-.52.26-1.067.238-1.615v-1.846h3.872v1.538a5.775 5.775 0 0 1-1.185 3.846c-.79.923-2.134 1.385-4.031 1.385-1.897-.077-3.32-.539-4.11-1.539ZM15.253.23h4.505l3.319 17.54H19.44l-.632-3.693h-2.608l-.632 3.692h-3.715L15.253.231Zm3.24 11.54-.948-6.847-.949 6.846h1.897ZM25.843 3.154h-2.687V.23h9.404v2.846h-2.687v14.692h-4.03V3.154ZM39.752.23h6.955v1.847h-4.505v5.77h3.635v1.768h-3.635v6.462h4.505v1.77h-7.034V.23h.079ZM48.761.23H50.5l5.137 11.616V.231h2.055v17.538h-1.58l-5.217-12v12h-2.134V.231ZM60.063.23h6.954v1.847h-4.504v5.77h3.635v1.768h-3.635v6.462h4.504v1.77h-6.954V.23ZM69.072.23h3.635a6.451 6.451 0 0 1 4.03 1.078c.87.692 1.265 1.923 1.265 3.538 0 2.23-.711 3.615-2.212 4.077l2.528 8.77h-2.45l-2.37-8.232h-1.976v8.231h-2.53V.231h.08Zm3.477 7.54a3.523 3.523 0 0 0 2.292-.616c.474-.385.711-1.154.711-2.308a4.846 4.846 0 0 0-.237-1.692 1.975 1.975 0 0 0-.869-.923 3.69 3.69 0 0 0-1.739-.308h-1.106v5.77h.948v.076ZM81.163 16.461A7.613 7.613 0 0 1 80.058 12V6.154a12.26 12.26 0 0 1 .395-3.308 3.916 3.916 0 0 1 1.502-2c.882-.508 1.9-.75 2.924-.692 1.66 0 2.845.384 3.556 1.23a5.77 5.77 0 0 1 1.107 3.847v.615H87.17v-.538a11.04 11.04 0 0 0-.158-1.923 1.533 1.533 0 0 0-.633-1A2.493 2.493 0 0 0 84.878 2a2.417 2.417 0 0 0-1.58.461c-.187.153-.338.34-.447.552a1.7 1.7 0 0 0-.186.68 14.01 14.01 0 0 0-.158 2.076v6.539a6.816 6.816 0 0 0 .474 2.923c.316.615.949.846 1.897.846.374.045.754-.018 1.092-.182.337-.165.617-.422.805-.741a6.908 6.908 0 0 0 .553-3.077v-1.23h-2.292v-1.77h4.584v8.692h-1.58l-.238-2a3.143 3.143 0 0 1-1.226 1.658 3.288 3.288 0 0 1-2.014.573 4.046 4.046 0 0 1-1.899-.352 3.932 3.932 0 0 1-1.5-1.187ZM94.678 11.615 90.805.308h2.371l2.766 8.461L98.63.308H101l-3.872 11.307v6.154h-2.371v-6.154h-.08Z"/></g></g></symbol><symbol id="logo-mobile"><g fill="none"><g clip-path="url(#a)"><path d="M6.012 20.935V18.65a139.122 139.122 0 0 1 19.976-1.343c0 .606 0 1.222-.06 1.839 1.9-.86 3.896-1.478 5.943-1.84a16.767 16.767 0 0 0-6.767-8.283 16.248 16.248 0 0 0-10.306-2.4c-3.6.375-6.98 1.946-9.62 4.471a16.948 16.948 0 0 0-4.99 9.507l5.824.333ZM26.978 24.481c-1.149 1.294-1.376 1.213-1.376 3.486v9.275a16.694 16.694 0 0 0 5.425-6.052A17.082 17.082 0 0 0 33 23.239c-.013-1.052-.12-2.1-.317-3.133a32.866 32.866 0 0 0-5.705 4.375ZM6.299 25.987s-3.754-1.455-5.14-1.85A8.33 8.33 0 0 0 0 23.856a17.067 17.067 0 0 0 2.463 8.233A16.633 16.633 0 0 0 8.598 38L6.299 25.987Z" fill="#FDC305"/><path d="M26.038 17.297A92.52 92.52 0 0 0 24.65.657s-.139-1.304-.881-.243a14.583 14.583 0 0 0-1.189 3.981 68.296 68.296 0 0 0-12.647.344C9.15 2.02 7.774.758 7.11 1.01c-.663.253-.713 3.345-.713 3.345L6.071 18.6a139.08 139.08 0 0 1 19.967-1.303Z" fill="#F06351"/><path d="M12.29 14.145c0-.09.991.687 1.397.93.406.242.604.424.604.596s-.267.344-.624.344c-.356 0-.9-.122-.99-.273h1.218a8.34 8.34 0 0 1-1.604-1.597ZM19.699 14.256l-1.08 1.344c0 .06-.168.354.179.303a7.16 7.16 0 0 0 1.208-.293c.109 0 .07-.192-.109-.171-.178.02-.683.05-.99.11l.832-1.272s.069-.132-.04-.02ZM16.59 20.41c.458-.207.838-.562 1.079-1.01.277-.658 0-.92-.436-1.011a2.368 2.368 0 0 0-1.723.343c-.387.364-.337.728-.05 1.01.348.27.727.494 1.13.668Z" fill="#000"/><path d="M16.193 21.672c-.111.231-.266.437-.456.607a1.694 1.694 0 0 1-.99.384 2.1 2.1 0 0 1-1.456-.435 2.29 2.29 0 0 1-.525-.445 1.06 1.06 0 0 0-.356-.262s.742 4.142 2.545 4.799 2.12-.758 2.179-1.142a5.758 5.758 0 0 0-.812-3.263c-.02-.313-.03-.111-.129-.243Z" fill="#F06351"/><path d="M14.569 22.824a3.363 3.363 0 0 1-1.3-.474 3.435 3.435 0 0 1-1.039-1.007.144.144 0 0 1 .13-.198.137.137 0 0 1 .1.043 3.22 3.22 0 0 0 2.089 1.313c.328-.025.646-.13.927-.306.28-.175.516-.417.687-.704l.139-.192.099.212s.366.768.99.808c.624.04 1.04-.414 1.595-1.293a.138.138 0 0 1 .153-.032.138.138 0 0 1 .045.032c.032.02.055.053.064.09a.154.154 0 0 1-.015.112c-.633 1.01-1.257 1.455-1.861 1.414a1.517 1.517 0 0 1-.642-.253 1.556 1.556 0 0 1-.468-.514 2.254 2.254 0 0 1-.74.67c-.294.165-.62.26-.953.28Z" fill="#000"/><path d="M25.988 19.116a58.728 58.728 0 0 0-5.021 5.244 31.57 31.57 0 0 1-5.24 4.94c-.217-.535-1.604-1.525-1.604-1.525s-3.1-2.162-5.13-3.86a34.1 34.1 0 0 1-3.1-3.03l-1.98-.112c2.862 4.25 7.05 7.384 11.884 8.892.852-.142 3.238-1.88 5.021-3.294a58.145 58.145 0 0 0 5.883-5.951c.498-.595.88-1.281 1.13-2.021a37.39 37.39 0 0 0-1.843.717Z" fill="#F06351"/></g></g></symbol></svg>