<svg width="33" height="38" fill="none" xmlns="http://www.w3.org/2000/svg"><g clip-path="url(#a)"><path d="M6.012 20.935V18.65a139.122 139.122 0 0 1 19.976-1.343c0 .606 0 1.222-.06 1.839 1.9-.86 3.896-1.478 5.943-1.84a16.767 16.767 0 0 0-6.767-8.283 16.248 16.248 0 0 0-10.306-2.4c-3.6.375-6.98 1.946-9.62 4.471a16.948 16.948 0 0 0-4.99 9.507l5.824.333ZM26.978 24.481c-1.149 1.294-1.376 1.213-1.376 3.486v9.275a16.694 16.694 0 0 0 5.425-6.052A17.082 17.082 0 0 0 33 23.239c-.013-1.052-.12-2.1-.317-3.133a32.866 32.866 0 0 0-5.705 4.375ZM6.299 25.987s-3.754-1.455-5.14-1.85A8.33 8.33 0 0 0 0 23.856a17.067 17.067 0 0 0 2.463 8.233A16.633 16.633 0 0 0 8.598 38L6.299 25.987Z" fill="#FDC305"/><path d="M26.038 17.297A92.52 92.52 0 0 0 24.65.657s-.139-1.304-.881-.243a14.583 14.583 0 0 0-1.189 3.981 68.296 68.296 0 0 0-12.647.344C9.15 2.02 7.774.758 7.11 1.01c-.663.253-.713 3.345-.713 3.345L6.071 18.6a139.08 139.08 0 0 1 19.967-1.303Z" fill="#F06351"/><path d="M12.29 14.145c0-.09.991.687 1.397.93.406.242.604.424.604.596s-.267.344-.624.344c-.356 0-.9-.122-.99-.273h1.218a8.34 8.34 0 0 1-1.604-1.597ZM19.699 14.256l-1.08 1.344c0 .06-.168.354.179.303a7.16 7.16 0 0 0 1.208-.293c.109 0 .07-.192-.109-.171-.178.02-.683.05-.99.11l.832-1.272s.069-.132-.04-.02ZM16.59 20.41c.458-.207.838-.562 1.079-1.01.277-.658 0-.92-.436-1.011a2.368 2.368 0 0 0-1.723.343c-.387.364-.337.728-.05 1.01.348.27.727.494 1.13.668Z" fill="#000"/><path d="M16.193 21.672c-.111.231-.266.437-.456.607a1.694 1.694 0 0 1-.99.384 2.1 2.1 0 0 1-1.456-.435 2.29 2.29 0 0 1-.525-.445 1.06 1.06 0 0 0-.356-.262s.742 4.142 2.545 4.799 2.12-.758 2.179-1.142a5.758 5.758 0 0 0-.812-3.263c-.02-.313-.03-.111-.129-.243Z" fill="#F06351"/><path d="M14.569 22.824a3.363 3.363 0 0 1-1.3-.474 3.435 3.435 0 0 1-1.039-1.007.144.144 0 0 1 .13-.198.137.137 0 0 1 .1.043 3.22 3.22 0 0 0 2.089 1.313c.328-.025.646-.13.927-.306.28-.175.516-.417.687-.704l.139-.192.099.212s.366.768.99.808c.624.04 1.04-.414 1.595-1.293a.138.138 0 0 1 .153-.032.138.138 0 0 1 .045.032c.032.02.055.053.064.09a.154.154 0 0 1-.015.112c-.633 1.01-1.257 1.455-1.861 1.414a1.517 1.517 0 0 1-.642-.253 1.556 1.556 0 0 1-.468-.514 2.254 2.254 0 0 1-.74.67c-.294.165-.62.26-.953.28Z" fill="#000"/><path d="M25.988 19.116a58.728 58.728 0 0 0-5.021 5.244 31.57 31.57 0 0 1-5.24 4.94c-.217-.535-1.604-1.525-1.604-1.525s-3.1-2.162-5.13-3.86a34.1 34.1 0 0 1-3.1-3.03l-1.98-.112c2.862 4.25 7.05 7.384 11.884 8.892.852-.142 3.238-1.88 5.021-3.294a58.145 58.145 0 0 0 5.883-5.951c.498-.595.88-1.281 1.13-2.021a37.39 37.39 0 0 0-1.843.717Z" fill="#F06351"/></g><defs><clipPath id="a"><path fill="#fff" d="M0 0h33v38H0z"/></clipPath></defs></svg>